<?xml version="1.0" encoding="UTF-8"?>
<svg id="chatbot_open" xmlns="http://www.w3.org/2000/svg" version="1.1" viewBox="0 0 700 650.58">
  <!-- Generator: Adobe Illustrator 29.4.0, SVG Export Plug-In . SVG Version: 2.1.0 Build 152)  -->
  <defs>
    <style>
      .st0 {
        fill: #13003f;
      }

      .st1 {
        fill: #927fff;
      }

      .st2 {
        fill: #fff;
      }

      .st3 {
        fill: none;
      }

      .st3, .st4 {
        stroke: #13003f;
        stroke-miterlimit: 10;
        stroke-width: 15px;
      }

      .st4 {
        fill: #6752dd;
      }

      .st5 {
        fill: #fffdf6;
        stroke: #13003f;
        stroke-linecap: round;
        stroke-linejoin: round;
        stroke-width: 13px;
      }
    </style>
  </defs>
  <polygon class="st1" points="139.74 209.9 95.23 253.83 95.23 460.09 293.77 449.36 296.78 460.09 408.43 460.09 406.23 449.49 606.6 465.9 607.14 246.47 570.81 218.83 139.74 209.9"/>
  <path class="st3" d="M581.65,222.18l23.79,22.68c1.22,1.16,1.91,2.77,1.91,4.45v209.97c0,3.59-3.07,6.42-6.65,6.13l-186.49-15.28c-4.32-.35-7.64,3.75-6.39,7.9s-1.77,7.92-5.89,7.92l-52.03-.12h-51.82c-4.12,0-7.08-3.97-5.89-7.92,1.25-4.15-2.07-8.25-6.39-7.9l-186.49,15.28c-3.58.29-6.65-2.53-6.65-6.13v-209.97c0-1.68.69-3.29,1.91-4.45l23.79-22.68"/>
  <path class="st4" d="M364.83,423.78l194.22,20.29c2.35.25,4.38-1.83,4.38-4.49v-13.08l-27.8-19.24-46.37-16.49-61.96,1.77-40.98,16.42-21.5,14.82Z"/>
  <path class="st4" d="M334.98,423.9l-194.24,20.17c-2.35.24-4.37-1.82-4.37-4.45v-13.02s27.8-19.12,27.8-19.12l46.37-16.39,61.96,1.76,40.98,16.32,21.5,14.73Z"/>
  <path class="st5" d="M581.65,205.89v238.6c-63.24-64.36-165.57-66.72-231.66-6.41-66.08-60.31-168.41-57.95-231.64,6.41v-238.6c63.23-64.35,165.56-66.71,231.65-6.41,66.08-60.3,168.41-57.94,231.65,6.41Z"/>
  <g>
    <circle class="st0" cx="282.65" cy="244.16" r="23.47"/>
    <circle class="st2" cx="282.65" cy="238.83" r="10.76"/>
  </g>
  <g>
    <circle class="st0" cx="403.84" cy="244.16" r="23.47"/>
    <circle class="st2" cx="403.84" cy="238.83" r="10.76"/>
  </g>
  <path class="st0" d="M329.56,295.77s-.07-.05-.1-.07c-4.35-2.95-6.86-8-6.86-13.32v-7.7c0-2.06,1.65-3.74,3.67-3.74h34.76c2.1,0,3.8,1.73,3.8,3.86v7.65c0,5.84-3,11.25-7.91,14.27h0c-8.55,5.25-19.69,4.2-27.36-.96Z"/>
</svg>