<?xml version="1.0" encoding="UTF-8"?>
<svg id="chatbox_closed" xmlns="http://www.w3.org/2000/svg" version="1.1" viewBox="0 0 700 650.58">
  <!-- Generator: Adobe Illustrator 29.4.0, SVG Export Plug-In . SVG Version: 2.1.0 Build 152)  -->
  <defs>
    <style>
      .st0 {
        fill: #13003f;
      }

      .st1, .st2, .st3 {
        fill: none;
      }

      .st1, .st2, .st3, .st4, .st5, .st6 {
        stroke: #13003f;
        stroke-linecap: round;
      }

      .st1, .st2, .st4, .st5, .st6 {
        stroke-linejoin: round;
      }

      .st1, .st7, .st4, .st5, .st6 {
        stroke-width: 13px;
      }

      .st2 {
        stroke-width: 7px;
      }

      .st8 {
        fill: #fff;
      }

      .st7 {
        fill: #6752dd;
        stroke: #13003f;
      }

      .st7, .st3 {
        stroke-miterlimit: 10;
      }

      .st3 {
        stroke-width: 9px;
      }

      .st4 {
        fill: #fffdf6;
      }

      .st5 {
        fill: #f2f1ff;
      }

      .st6 {
        fill: #927fff;
      }
    </style>
  </defs>
  <polygon class="st5" points="522.33 216.24 522.33 437.91 472.59 444.72 463.04 446.03 416.17 452.45 314.5 466.38 264.43 473.23 251.95 474.94 251.95 251.75 515.42 217.14 522.33 216.24"/>
  <g>
    <circle class="st0" cx="454.49" cy="300.94" r="25.9"/>
    <circle class="st8" cx="452.32" cy="296.29" r="11.87"/>
  </g>
  <path class="st3" d="M365.32,346.16c.64,1.5,3.89,8.69,12.41,12.01,11.11,4.34,21.1-1.85,21.79-2.29,6.58-4.23,8.82-10.38,9.44-12.32"/>
  <path class="st6" d="M251.95,251.09v46.85c-7.52.17-30.01-.49-46.87-13.84-5.43-4.3-9.41-8.96-12.28-13.06v-33.67c-.17-3.64.15-9.09,2.92-14.7,3.31-6.74,8.8-10.97,14.12-13.61-9.43,10.13-5.81,19.94-5.58,21.58,1.86,13.21,20.47,22.89,47.7,20.45Z"/>
  <path class="st4" d="M515.42,216.49l-263.47,34.6c-27.22,2.44-45.84-7.24-47.7-20.45-.23-1.64-3.86-11.45,5.58-21.58h.01c7.27-3.63,14.27-4.29,15.15-4.36l250.33-29.07v10.7c4.38,3.45,8.75,6.89,13.13,10.33,7.53,5.91,19.45,13.97,26.97,19.82Z"/>
  <path class="st7" d="M251.95,297.94v122.2c-7.91.05-30.31-3.32-46.87-16.44-5.43-4.3-9.41-8.96-12.28-13.07v-119.59c2.87,4.1,6.86,8.76,12.28,13.06,16.86,13.35,39.35,14.01,46.87,13.84Z"/>
  <path class="st6" d="M251.95,420.14v54.15c-2.8.28-12.61,1.03-23.82-2.54h-.02c-5.34-1.71-11.03-4.4-16.41-8.61-13.13-10.26-17.56-23.58-18.9-28.36v-44.14c2.87,4.11,6.86,8.77,12.28,13.07,16.56,13.12,38.96,16.49,46.87,16.44Z"/>
  <line class="st2" x1="251.95" y1="223.42" x2="320.16" y2="215.58"/>
  <line class="st2" x1="443.47" y1="207.93" x2="487.51" y2="202.86"/>
  <line class="st2" x1="345.81" y1="222.31" x2="394.63" y2="216.69"/>
  <path class="st1" d="M228.13,471.74h-.02s.02,0,.02,0Z"/>
  <g>
    <circle class="st0" cx="314.5" cy="310.92" r="25.9"/>
    <circle class="st8" cx="314.5" cy="305.03" r="11.87"/>
  </g>
</svg>