<?xml version="1.0" encoding="UTF-8"?>
<svg id="Layer_3" xmlns="http://www.w3.org/2000/svg" version="1.1" viewBox="0 0 792 792">
  <!-- Generator: Adobe Illustrator 29.3.0, SVG Export Plug-In . SVG Version: 2.1.0 Build 146)  -->
  <defs>
    <style>
      .st0 {
        fill: #13003f;
      }

      .st1, .st2, .st3, .st4, .st5, .st6, .st7, .st8, .st9 {
        stroke: #13003f;
      }

      .st1, .st2, .st3, .st5 {
        fill: none;
      }

      .st1, .st2, .st3, .st5, .st6, .st7, .st8, .st9 {
        stroke-linecap: round;
      }

      .st1, .st2, .st3, .st6, .st7, .st8, .st9 {
        stroke-linejoin: round;
      }

      .st1, .st4, .st6, .st8, .st9 {
        stroke-width: 13px;
      }

      .st2 {
        stroke-width: 7px;
      }

      .st3, .st7 {
        stroke-width: 8px;
      }

      .st4 {
        fill: #6752dd;
      }

      .st4, .st5 {
        stroke-miterlimit: 10;
      }

      .st10 {
        fill: #fff;
      }

      .st5 {
        stroke-width: 9px;
      }

      .st6 {
        fill: #fffdf6;
      }

      .st7, .st8 {
        fill: #f2f1ff;
      }

      .st9 {
        fill: #927fff;
      }
    </style>
  </defs>
  <polygon class="st8" points="529.05 146.16 529.05 336.94 486.24 342.8 478.02 343.93 437.68 349.45 350.18 361.44 307.09 367.34 296.35 368.81 296.35 176.72 523.1 146.94 529.05 146.16"/>
  <g>
    <circle class="st0" cx="470.66" cy="219.62" r="22.29"/>
    <circle class="st10" cx="468.8" cy="215.62" r="10.22"/>
  </g>
  <path class="st5" d="M393.92,258.54c.55,1.29,3.35,7.47,10.68,10.33,9.56,3.73,18.16-1.59,18.75-1.97,5.67-3.64,7.59-8.93,8.12-10.6"/>
  <path class="st9" d="M296.35,176.72v40.32c-6.47.15-25.83-.42-40.34-11.91-4.67-3.7-8.1-7.71-10.57-11.24v-28.98c-.15-3.13.13-7.82,2.51-12.65,2.85-5.8,7.57-9.44,12.15-11.71-8.12,8.72-5,17.16-4.8,18.57,1.6,11.37,17.62,19.7,41.05,17.6Z"/>
  <path class="st6" d="M523.1,146.94l-226.75,29.78c-23.43,2.1-39.45-6.23-41.05-17.6-.2-1.41-3.32-9.85,4.8-18.57h.01c6.26-3.12,12.28-3.69,13.04-3.75l215.44-25.02v9.21c3.77,2.97,7.53,5.93,11.3,8.89,6.48,5.09,16.74,12.02,23.21,17.06Z"/>
  <path class="st4" d="M296.35,217.04v105.17c-6.81.04-26.09-2.86-40.34-14.15-4.67-3.7-8.1-7.71-10.57-11.25v-102.92c2.47,3.53,5.9,7.54,10.57,11.24,14.51,11.49,33.87,12.06,40.34,11.91Z"/>
  <path class="st9" d="M296.35,322.21v46.6c-2.41.24-10.85.89-20.5-2.19h-.02c-4.6-1.47-9.49-3.79-14.12-7.41-11.3-8.83-15.11-20.29-16.27-24.41v-37.99c2.47,3.54,5.9,7.55,10.57,11.25,14.25,11.29,33.53,14.19,40.34,14.15Z"/>
  <line class="st2" x1="296.36" y1="152.91" x2="355.06" y2="146.16"/>
  <line class="st2" x1="461.18" y1="139.58" x2="499.08" y2="135.22"/>
  <line class="st2" x1="377.13" y1="151.95" x2="419.15" y2="147.11"/>
  <polygon class="st1" points="437.68 349.45 437.68 349.49 350.18 361.45 350.18 361.44 437.68 349.45"/>
  <path class="st8" d="M275.83,366.62v35.31c-2.83.64-5.78.97-8.8.97-22.28,0-40.35-18.07-40.35-40.35,0-14.34,7.49-26.93,18.76-34.08v6.33c1.16,4.12,4.97,15.58,16.27,24.41,4.63,3.62,9.52,5.94,14.12,7.41Z"/>
  <path class="st8" d="M511.04,339.46v127c-1.06,7.96-4.96,31.39-21.68,54.16-.94,1.28-1.92,2.56-2.95,3.84-3.49,4.35-7.47,8.64-12.02,12.75-17.2,15.58-36.05,22.89-51.49,26.35-.62.14-1.24.27-1.85.4-11.51,2.4-20.94,2.68-26.06,2.78-12.94.25-24.17-1.53-32.85-3.66-.76-.18-1.5-.37-2.22-.56-8.22-2.18-13.79-4.55-15.84-5.45-4.74-2.09-27.9-12.68-46.14-36.72-4.32-5.67-8.36-12.1-11.81-19.34-.55-1.15-1.08-2.31-1.6-3.5-5.71-13.1-7.83-24.91-8.7-32.94v-97.95h.02c9.65,3.08,18.09,2.43,20.5,2.19l10.74-1.47,43.09-5.89c1.42,4.45,4.5,11.98,11.39,18.33,15.83,14.6,44.83,16.53,62.12.79,11.96-10.89,13.65-25.99,13.99-31.08l40.32-5.52,8.21-1.12,24.83-3.39Z"/>
  <path class="st1" d="M275.85,366.62h-.02s.02,0,.02,0Z"/>
  <path class="st8" d="M437.68,349.49c-.34,5.09-2.03,20.19-13.99,31.08-17.29,15.74-46.29,13.81-62.12-.79-6.89-6.35-9.97-13.88-11.39-18.33l87.5-11.96Z"/>
  <path class="st8" d="M358.75,628.95c-.42,4.39-1.31,12.44-6.76,20.29-1.45,2.09-10.11,14.56-24.15,14.81-9.32.17-16.03-5.13-19.33-7.73-7.9-6.24-12.93-14.91-16.94-28.36-1.9-6.4-8.56-30.64-1.41-74.05.34-2.07.68-4.09,1.01-6.07,8.64,17.27,24.14,30.9,42.22,29.84,9.96-.59,19.64-5.57,26.97-12.76,2.93,17.11,1,37.09-1.61,64.03Z"/>
  <path class="st8" d="M496.99,613.12c-3.43,17.24-7.95,39.9-24.83,46.89-9.81,4.07-19.42,1.03-20.77.59-12.93-4.29-18.8-16.56-21.94-23.11-4.34-9.08-5.17-16.11-6.14-53.53-.21-7.86-.34-13.88-.39-18.53,10.98,8.18,25.26,9.33,28.29,9.51,16.72,1.01,35.56-6.48,44.58-17.53,2.96,13.66,5.83,32.47,1.2,55.71Z"/>
  <path class="st8" d="M360.36,564.92c-7.33,7.19-17.01,12.17-26.97,12.76-18.08,1.06-33.58-12.57-42.22-29.84,1.88-11.05,3.79-20.65,6.77-27.49,18.24,24.04,41.4,34.63,46.14,36.72,2.05.9,7.62,3.27,15.84,5.45.16.79.31,1.6.44,2.4Z"/>
  <path class="st1" d="M362.14,563.08c-.57.63-1.17,1.24-1.78,1.84-.13-.8-.28-1.61-.44-2.4.72.19,1.46.38,2.22.56Z"/>
  <path class="st8" d="M495.79,557.41c-9.02,11.05-27.86,18.54-44.58,17.53-3.03-.18-17.31-1.33-28.29-9.51-.01-.65-.02-1.27-.02-1.87,15.44-3.46,34.29-10.77,51.49-26.35,4.55-4.11,8.53-8.4,12.02-12.75,3.11,5.82,5.13,14.5,8.05,27.06.43,1.84.88,3.8,1.33,5.89Z"/>
  <path class="st1" d="M422.9,563.56c0,.6.01,1.22.02,1.87-.64-.46-1.26-.96-1.87-1.47.61-.13,1.23-.26,1.85-.4Z"/>
  <path class="st8" d="M555.7,358.94c0,6.11-1.36,11.9-3.79,17.08-3.2,6.82-8.25,12.6-14.51,16.68-6.32,4.13-13.87,6.53-21.98,6.53-1.48,0-2.94-.08-4.38-.24v-59.53l-24.83,3.39-8.21,1.12s.02-.02.02-.04l8.22-1.13,42.81-5.86v-15.92c15.53,5.59,26.65,20.46,26.65,37.92Z"/>
  <path class="st8" d="M614.79,454.88c-9.09,20.25-37.93,21.95-40.91,22.09-3.4.15-32.71,1.04-43.07-19.19-7.63-14.88.06-31.32,2.17-35.83.64-1.38,2.6-5.48,6.28-10.12,9.58-12.06,23.05-18.04,33.15-21.05,3.37-1.01,6.36-1.68,8.71-2.14,4.13,2.42,9.88,6.32,15.57,12.31,2.67,2.82,28.71,30.27,18.1,53.93Z"/>
  <path class="st8" d="M256.81,457.78c7.62-14.88-.06-31.32-2.17-35.84-12.55-26.85-44-32.61-48.14-33.3-4.12,2.41-9.88,6.32-15.57,12.31-2.67,2.82-28.72,30.27-18.1,53.93,9.08,20.25,37.92,21.95,40.9,22.08,3.4.15,32.71,1.04,43.08-19.18Z"/>
  <path class="st3" d="M211.25,389.63c3.99-1.92,15.3-7.93,19.29-9.85"/>
  <path class="st7" d="M572.41,390.78c-10.1,3.01-23.57,8.99-33.15,21.05.08-1.95.24-7.14.01-9.56-.28-3.02-1.28-7.33-1.87-9.57,6.26-4.08,11.31-9.86,14.51-16.68,1.26-.31,14.71,6.84,20.5,14.76Z"/>
  <path class="st8" d="M538.53,467.23c-2.66,1.79-9.66,7.05-11.63,16.09-3.06,14,3.91,28.81,14.9,31.76,3.32.89,12.84.79,14.68-1.86,1.81-2.62-1.77-5.75-1.3-12.02.07-.94.8-9.03,7.15-12.35,4.26-2.23,10.64-2.09,13.97,1.3,5.58,5.67-1.84,15.93,3.9,22.75,4.07,4.83,11.71,4.33,13.32,4.22,11.45-.75,20.68-11.89,23.07-22.75,1.92-8.73.18-20.75-7.47-26.32-1.24-.9-2.41-1.48-3.3-1.84l-11.45,6.41-24.58,4.41-31.27-9.79Z"/>
  <path class="st8" d="M246.26,468.67c2.66,1.79,9.66,7.05,11.63,16.09,3.06,14-3.91,28.81-14.9,31.76-3.32.89-12.84.79-14.68-1.86-1.81-2.62,1.77-5.75,1.3-12.02-.07-.94-.8-9.03-7.15-12.35-4.26-2.23-10.64-2.09-13.97,1.3-5.58,5.67,1.84,15.93-3.9,22.75-4.07,4.83-11.71,4.33-13.32,4.22-11.45-.75-20.68-11.89-23.07-22.75-1.92-8.73-.18-20.75,7.47-26.32,1.24-.9,2.41-1.48,3.3-1.84l11.45,6.41,24.58,4.41,31.27-9.79Z"/>
  <g>
    <circle class="st0" cx="350.18" cy="228.21" r="22.29"/>
    <circle class="st10" cx="350.18" cy="223.14" r="10.22"/>
  </g>
</svg>